<svg xmlns="http://www.w3.org/2000/svg" xmlns:xlink="http://www.w3.org/1999/xlink" width="1488" zoomAndPan="magnify" viewBox="0 0 1116 413.249996" height="551" preserveAspectRatio="xMidYMid meet" version="1.0"><defs><filter x="0%" y="0%" width="100%" height="100%" id="d943464e45"><feColorMatrix values="0 0 0 0 1 0 0 0 0 1 0 0 0 0 1 0 0 0 1 0" color-interpolation-filters="sRGB"/></filter><clipPath id="afb45f5d8f"><path d="M 1.011719 42 L 1114.988281 42 L 1114.988281 363 L 1.011719 363 Z M 1.011719 42 " clip-rule="nonzero"/></clipPath><mask id="25a6516033"><g filter="url(#d943464e45)"><rect x="-111.6" width="1339.2" fill="#000000" y="-41.325" height="495.899995" fill-opacity="0.7"/></g></mask><clipPath id="4b64680adb"><path d="M 0.0117188 1 L 274 1 L 274 313 L 0.0117188 313 Z M 0.0117188 1 " clip-rule="nonzero"/></clipPath><clipPath id="9c8612b01d"><path d="M 316 63 L 1113.988281 63 L 1113.988281 320 L 316 320 Z M 316 63 " clip-rule="nonzero"/></clipPath><clipPath id="31f9b9128e"><rect x="0" width="1114" y="0" height="321"/></clipPath></defs><g clip-path="url(#afb45f5d8f)"><g mask="url(#25a6516033)"><g transform="matrix(1, 0, 0, 1, 1, 42)"><g clip-path="url(#31f9b9128e)"><g clip-path="url(#4b64680adb)"><path fill="#000000" d="M 239.378906 61.953125 C 239.195312 60.3125 237.738281 59.585938 236.648438 59.585938 C 235.554688 59.585938 211.710938 57.765625 211.710938 57.765625 C 211.710938 57.765625 195.148438 41.203125 193.144531 39.5625 C 191.324219 37.742188 187.867188 38.289062 186.410156 38.652344 C 186.230469 38.652344 182.769531 39.746094 177.128906 41.566406 C 171.484375 25.367188 161.839844 10.625 144.546875 10.625 L 142.910156 10.625 C 138.175781 4.433594 131.988281 1.523438 126.890625 1.523438 C 86.847656 1.523438 67.554688 51.578125 61.546875 77.058594 C 45.894531 81.972656 34.789062 85.25 33.515625 85.796875 C 24.777344 88.527344 24.597656 88.710938 23.503906 96.898438 C 22.59375 103.089844 -0.15625 279.101562 -0.15625 279.101562 L 176.945312 312.226562 L 273.050781 291.476562 C 273.234375 291.113281 239.558594 63.589844 239.378906 61.953125 Z M 167.300781 44.113281 C 162.929688 45.390625 157.652344 47.027344 152.375 48.847656 L 152.375 45.570312 C 152.375 35.742188 151.097656 27.734375 148.734375 21.363281 C 157.832031 22.453125 163.476562 32.464844 167.300781 44.113281 Z M 137.628906 23.363281 C 139.996094 29.554688 141.632812 38.289062 141.632812 50.304688 L 141.632812 52.125 C 131.804688 55.21875 121.429688 58.3125 110.691406 61.769531 C 116.699219 38.835938 128.164062 27.550781 137.628906 23.363281 Z M 125.980469 12.078125 C 127.800781 12.078125 129.621094 12.808594 131.078125 13.898438 C 118.152344 19.90625 104.503906 35.011719 98.859375 65.59375 C 90.304688 68.324219 82.113281 70.6875 74.289062 73.238281 C 80.839844 49.9375 97.222656 12.078125 125.980469 12.078125 Z M 125.980469 12.078125 " fill-opacity="1" fill-rule="nonzero"/></g><path fill="#000000" d="M 236.648438 59.222656 C 235.554688 59.222656 211.710938 57.402344 211.710938 57.402344 C 211.710938 57.402344 195.148438 40.839844 193.144531 39.199219 C 192.417969 38.472656 191.507812 38.109375 190.777344 38.109375 L 177.492188 312.226562 L 273.597656 291.476562 C 273.597656 291.476562 239.925781 63.589844 239.742188 61.953125 C 239.015625 60.3125 237.738281 59.585938 236.648438 59.222656 Z M 236.648438 59.222656 " fill-opacity="1" fill-rule="nonzero"/><path fill="#ffffff" d="M 144.546875 112.371094 L 132.898438 147.5 C 132.898438 147.5 122.339844 141.859375 109.78125 141.859375 C 91.03125 141.859375 90.125 153.691406 90.125 156.601562 C 90.125 172.621094 131.988281 178.808594 131.988281 216.484375 C 131.988281 246.15625 113.238281 265.265625 87.9375 265.265625 C 57.359375 265.265625 42.070312 246.335938 42.070312 246.335938 L 50.261719 219.398438 C 50.261719 219.398438 66.277344 233.230469 79.746094 233.230469 C 88.667969 233.230469 92.308594 226.316406 92.308594 221.21875 C 92.308594 200.285156 58.085938 199.375 58.085938 164.792969 C 58.085938 135.851562 78.839844 107.820312 120.882812 107.820312 C 136.539062 107.640625 144.546875 112.371094 144.546875 112.371094 Z M 144.546875 112.371094 " fill-opacity="1" fill-rule="nonzero"/><g clip-path="url(#9c8612b01d)"><path fill="#000000" d="M 385.175781 178.445312 C 375.527344 173.347656 370.613281 168.796875 370.613281 162.789062 C 370.613281 155.144531 377.53125 150.230469 388.269531 150.230469 C 400.828125 150.230469 411.929688 155.328125 411.929688 155.328125 L 420.667969 128.570312 C 420.667969 128.570312 412.660156 122.382812 388.996094 122.382812 C 356.050781 122.382812 333.117188 141.3125 333.117188 167.886719 C 333.117188 182.996094 343.855469 194.460938 358.054688 202.652344 C 369.703125 209.023438 373.707031 213.753906 373.707031 220.671875 C 373.707031 227.769531 367.882812 233.59375 357.144531 233.59375 C 341.308594 233.59375 326.199219 225.40625 326.199219 225.40625 L 316.917969 252.160156 C 316.917969 252.160156 330.75 261.445312 354.050781 261.445312 C 387.90625 261.445312 412.476562 244.699219 412.476562 214.664062 C 412.113281 198.285156 399.917969 187 385.175781 178.445312 Z M 520.230469 122.019531 C 503.488281 122.019531 490.382812 130.027344 480.371094 142.039062 L 480.007812 141.859375 L 494.566406 66.140625 L 456.890625 66.140625 L 420.121094 259.078125 L 457.800781 259.078125 L 470.359375 193.1875 C 475.273438 168.25 488.195312 152.78125 500.210938 152.78125 C 508.765625 152.78125 512.042969 158.605469 512.042969 166.792969 C 512.042969 171.890625 511.675781 178.445312 510.402344 183.539062 L 496.207031 259.078125 L 533.882812 259.078125 L 548.628906 181.175781 C 550.265625 172.984375 551.359375 163.15625 551.359375 156.417969 C 551.175781 134.757812 540.074219 122.019531 520.230469 122.019531 Z M 636.542969 122.019531 C 591.039062 122.019531 561.003906 162.972656 561.003906 208.660156 C 561.003906 237.78125 579.023438 261.445312 612.878906 261.445312 C 657.472656 261.445312 687.507812 221.582031 687.507812 174.804688 C 687.6875 147.683594 672.035156 122.019531 636.542969 122.019531 Z M 617.976562 232.683594 C 605.054688 232.683594 599.773438 221.765625 599.773438 207.929688 C 599.773438 186.269531 610.878906 151.140625 631.445312 151.140625 C 644.734375 151.140625 649.285156 162.789062 649.285156 173.894531 C 649.285156 197.011719 637.816406 232.683594 617.976562 232.683594 Z M 784.160156 122.019531 C 758.675781 122.019531 744.296875 144.589844 744.296875 144.589844 L 743.933594 144.589844 L 746.117188 124.382812 L 712.625 124.382812 C 710.988281 138.035156 707.894531 158.96875 704.980469 174.441406 L 678.953125 312.589844 L 716.628906 312.589844 L 727.1875 256.710938 L 728.097656 256.710938 C 728.097656 256.710938 735.925781 261.625 750.121094 261.625 C 794.535156 261.625 823.476562 216.121094 823.476562 170.253906 C 823.292969 144.769531 811.824219 122.019531 784.160156 122.019531 Z M 748.121094 233.050781 C 738.289062 233.050781 732.464844 227.40625 732.464844 227.40625 L 738.652344 192.277344 C 743.023438 168.613281 755.398438 153.144531 768.503906 153.144531 C 780.15625 153.144531 783.613281 163.882812 783.613281 173.894531 C 783.792969 198.285156 769.234375 233.050781 748.117188 233.050781 Z M 877.171875 67.957031 C 865.15625 67.957031 855.511719 77.605469 855.511719 89.800781 C 855.511719 100.902344 862.609375 108.730469 873.347656 108.730469 L 873.710938 108.730469 C 885.542969 108.730469 895.554688 100.722656 895.734375 86.890625 C 895.917969 75.785156 888.457031 67.957031 877.171875 67.957031 Z M 824.386719 258.894531 L 862.0625 258.894531 L 887.546875 124.929688 L 849.683594 124.929688 M 983.652344 124.75 L 957.441406 124.75 L 958.714844 118.558594 C 960.898438 105.636719 968.542969 94.351562 981.285156 94.351562 C 988.019531 94.351562 993.296875 96.355469 993.296875 96.355469 L 1000.578125 66.683594 C 1000.578125 66.683594 994.207031 63.410156 980.011719 63.410156 C 966.722656 63.410156 953.253906 67.230469 943.0625 75.96875 C 930.136719 86.890625 924.132812 102.722656 921.21875 118.742188 L 920.125 124.929688 L 902.472656 124.929688 L 896.828125 153.507812 L 914.484375 153.507812 L 894.460938 259.078125 L 932.140625 259.078125 L 952.160156 153.507812 L 978.191406 153.507812 Z M 1074.476562 124.929688 C 1074.476562 124.929688 1050.816406 184.449219 1040.441406 217.03125 L 1040.078125 217.03125 C 1039.347656 206.476562 1030.792969 124.929688 1030.792969 124.929688 L 991.113281 124.929688 L 1013.867188 247.609375 C 1014.230469 250.339844 1014.046875 251.980469 1012.957031 253.800781 C 1008.585938 262.355469 1001.125 270.546875 992.386719 276.550781 C 985.289062 281.648438 977.28125 285.105469 970.910156 287.289062 L 981.464844 319.324219 C 989.113281 317.6875 1005.128906 311.316406 1018.417969 298.757812 C 1035.527344 282.742188 1051.542969 257.804688 1067.925781 223.949219 L 1113.976562 124.75 L 1074.476562 124.75 Z M 1074.476562 124.929688 " fill-opacity="1" fill-rule="nonzero"/></g></g></g></g></g></svg>